<mxfile host="app.diagrams.net" modified="2021-08-25T06:16:07.707Z" agent="5.0 (Windows NT 10.0; Win64; x64) AppleWebKit/537.36 (KHTML, like Gecko) Chrome/92.0.4515.159 Safari/537.36 Edg/92.0.902.78" etag="sTVQK4o1a9h9kGa-ymzz" version="14.9.8" type="github">
  <diagram id="C5RBs43oDa-KdzZeNtuy" name="Page-1">
    <mxGraphModel dx="1422" dy="762" grid="1" gridSize="10" guides="1" tooltips="1" connect="1" arrows="1" fold="1" page="1" pageScale="1" pageWidth="827" pageHeight="1169" math="0" shadow="0">
      <root>
        <mxCell id="WIyWlLk6GJQsqaUBKTNV-0" />
        <mxCell id="WIyWlLk6GJQsqaUBKTNV-1" parent="WIyWlLk6GJQsqaUBKTNV-0" />
        <mxCell id="KfcOh3Ocjs6taT4CBaVw-17" style="edgeStyle=orthogonalEdgeStyle;rounded=0;orthogonalLoop=1;jettySize=auto;html=1;exitX=1;exitY=0.5;exitDx=0;exitDy=0;entryX=0;entryY=0.5;entryDx=0;entryDy=0;" edge="1" parent="WIyWlLk6GJQsqaUBKTNV-1" source="KfcOh3Ocjs6taT4CBaVw-15" target="KfcOh3Ocjs6taT4CBaVw-16">
          <mxGeometry relative="1" as="geometry" />
        </mxCell>
        <mxCell id="KfcOh3Ocjs6taT4CBaVw-15" value="&lt;h3&gt;项目模型文件&lt;/h3&gt;" style="rounded=0;whiteSpace=wrap;html=1;fillColor=#dae8fc;strokeColor=#6c8ebf;" vertex="1" parent="WIyWlLk6GJQsqaUBKTNV-1">
          <mxGeometry x="80" y="220" width="100" height="50" as="geometry" />
        </mxCell>
        <mxCell id="KfcOh3Ocjs6taT4CBaVw-20" style="edgeStyle=orthogonalEdgeStyle;rounded=0;orthogonalLoop=1;jettySize=auto;html=1;exitX=1;exitY=0.5;exitDx=0;exitDy=0;entryX=0;entryY=0.5;entryDx=0;entryDy=0;" edge="1" parent="WIyWlLk6GJQsqaUBKTNV-1" source="KfcOh3Ocjs6taT4CBaVw-16" target="KfcOh3Ocjs6taT4CBaVw-19">
          <mxGeometry relative="1" as="geometry" />
        </mxCell>
        <mxCell id="KfcOh3Ocjs6taT4CBaVw-16" value="&lt;h3&gt;解析模型文件&lt;/h3&gt;" style="rounded=0;whiteSpace=wrap;html=1;fillColor=#dae8fc;strokeColor=#6c8ebf;" vertex="1" parent="WIyWlLk6GJQsqaUBKTNV-1">
          <mxGeometry x="280" y="220" width="96" height="50" as="geometry" />
        </mxCell>
        <mxCell id="KfcOh3Ocjs6taT4CBaVw-18" value="用户上传" style="text;html=1;strokeColor=none;fillColor=none;align=center;verticalAlign=middle;whiteSpace=wrap;rounded=0;" vertex="1" parent="WIyWlLk6GJQsqaUBKTNV-1">
          <mxGeometry x="210" y="220" width="50" height="20" as="geometry" />
        </mxCell>
        <mxCell id="KfcOh3Ocjs6taT4CBaVw-22" style="edgeStyle=orthogonalEdgeStyle;rounded=0;orthogonalLoop=1;jettySize=auto;html=1;exitX=1;exitY=0.5;exitDx=0;exitDy=0;" edge="1" parent="WIyWlLk6GJQsqaUBKTNV-1" source="KfcOh3Ocjs6taT4CBaVw-19" target="KfcOh3Ocjs6taT4CBaVw-21">
          <mxGeometry relative="1" as="geometry" />
        </mxCell>
        <mxCell id="KfcOh3Ocjs6taT4CBaVw-19" value="&lt;h3&gt;Ag3DSwich对象&lt;/h3&gt;" style="shape=parallelogram;perimeter=parallelogramPerimeter;whiteSpace=wrap;html=1;fixedSize=1;fillColor=#dae8fc;strokeColor=#6c8ebf;" vertex="1" parent="WIyWlLk6GJQsqaUBKTNV-1">
          <mxGeometry x="470" y="215" width="130" height="60" as="geometry" />
        </mxCell>
        <mxCell id="KfcOh3Ocjs6taT4CBaVw-21" value="&lt;h3&gt;ag_3d_swich&lt;/h3&gt;" style="shape=cylinder3;whiteSpace=wrap;html=1;boundedLbl=1;backgroundOutline=1;size=15;fillColor=#dae8fc;strokeColor=#6c8ebf;" vertex="1" parent="WIyWlLk6GJQsqaUBKTNV-1">
          <mxGeometry x="690" y="205" width="60" height="80" as="geometry" />
        </mxCell>
        <mxCell id="KfcOh3Ocjs6taT4CBaVw-23" value="入库" style="text;html=1;strokeColor=none;fillColor=none;align=center;verticalAlign=middle;whiteSpace=wrap;rounded=0;" vertex="1" parent="WIyWlLk6GJQsqaUBKTNV-1">
          <mxGeometry x="620" y="220" width="40" height="20" as="geometry" />
        </mxCell>
        <mxCell id="KfcOh3Ocjs6taT4CBaVw-25" value="解析完成" style="text;html=1;strokeColor=none;fillColor=none;align=center;verticalAlign=middle;whiteSpace=wrap;rounded=0;" vertex="1" parent="WIyWlLk6GJQsqaUBKTNV-1">
          <mxGeometry x="410" y="220" width="50" height="20" as="geometry" />
        </mxCell>
      </root>
    </mxGraphModel>
  </diagram>
</mxfile>
